<svg xmlns="http://www.w3.org/2000/svg" enable-background="new 0 0 64 64" viewBox="0 0 64 64" id="Chameleon">
  <path d="M62.437,26.208c-1.139-2.85-2.789-5.419-4.886-7.653c-0.897-2.395-3.065-4.169-5.682-4.495
		c-0.99-0.567-2.02-1.075-3.075-1.497l-0.392-0.156C46.729,9.669,43.781,8,40.528,8H38c-1.104,0-2,0.896-2,2v2.392l-0.558-0.349
		C32.257,10.052,28.588,9,24.831,9c-5.529,0-10.864,2.318-14.638,6.362l-0.212,0.227C4.189,21.794,1,29.887,1,38.375
		c0,5.417,2.322,10.587,6.37,14.186C9.865,54.778,13.077,56,16.416,56h0.412c3.156,0,5.854-2.379,6.145-5.417
		c0.161-1.687-0.397-3.371-1.532-4.618C20.306,44.716,18.687,44,17,44c-1.464,0-2.873,0.533-3.97,1.501
		c-0.827,0.731-0.906,1.995-0.175,2.823c0.731,0.828,1.994,0.908,2.823,0.175c0.79-0.699,2.09-0.627,2.802,0.157
		c0.384,0.422,0.565,0.971,0.51,1.547C18.895,51.211,17.944,52,16.828,52h-0.412c-2.357,0-4.626-0.863-6.388-2.429
		c-0.849-0.754-1.601-1.595-2.247-2.504c-0.219-0.583-1.012-3.011,0.047-4.987c0.828-1.546,2.683-2.592,5.511-3.109
		C14.158,41.313,16.383,43,19,43h2c1.104,0,2-0.896,2-2s-0.896-2-2-2h-2c-0.599,0-1.132-0.27-1.499-0.689
		c3.43-0.472,6.791-0.772,9.657-0.964C27.772,40.008,30.155,42,33,42h2c1.104,0,2-0.896,2-2s-0.896-2-2-2h-2
		c-0.688,0-1.297-0.35-1.657-0.881c0.433-0.018,0.847-0.034,1.218-0.046c2.174-0.074,4.227-0.952,5.786-2.417
		C39.796,36.104,41.795,37,44,37h11.131C59.47,37,63,33.47,63,29.13C63,28.125,62.811,27.141,62.437,26.208z M54,21
		c0,1.654-1.346,3-3,3s-3-1.346-3-3s1.346-3,3-3S54,19.346,54,21z M36,31.337c-0.889,1.051-2.188,1.691-3.573,1.738
		c-0.431,0.015-0.915,0.033-1.427,0.055V33c0-1.104-0.896-2-2-2s-2,0.896-2,2v0.349c-2.954,0.196-6.435,0.505-10,0.994V34
		c0-1.104-0.896-2-2-2s-2,0.896-2,2v0.97c-0.119,0.021-0.239,0.04-0.357,0.062c-3.503,0.637-6.061,1.996-7.626,4.048
		C5.006,38.846,5,38.61,5,38.375c0-7.471,2.808-14.594,7.906-20.058l0.212-0.227c1.151-1.233,2.485-2.262,3.939-3.068l-0.98,3.429
		c-0.304,1.062,0.312,2.169,1.373,2.472C17.634,20.976,17.819,21,18.001,21c0.87,0,1.671-0.573,1.922-1.451l1.78-6.232
		C22.728,13.113,23.774,13,24.831,13c0.568,0,1.133,0.04,1.694,0.099l-1.423,4.268c-0.35,1.048,0.217,2.18,1.265,2.53
		C26.577,19.967,26.791,20,27,20c0.838,0,1.618-0.53,1.897-1.368l1.539-4.616c1.002,0.374,1.97,0.846,2.887,1.419L36,17.108V29
		V31.337z M55.131,33H44c-2.206,0-4-1.794-4-4V16v-4h0.528c1.996,0,3.79,1.109,4.683,2.894c0.219,0.438,0.592,0.781,1.046,0.963
		l0.008,0.003C44.876,17.14,44,18.967,44,21c0,3.86,3.141,7,7,7c2.599,0,4.867-1.427,6.074-3.536
		c0.638,1.023,1.196,2.097,1.649,3.229C58.907,28.153,59,28.636,59,29.13C59,31.264,57.265,33,55.131,33z" fill="#91939e" class="color000000 svgShape"></path>
</svg>
